# xmcd
#
# Track frame offsets: 
#        150
#        16724
#        29572
#        43907
#        65823
#        74908
#        89550
#        102456
#        117517
#        131956
#
# Disc length: 1984 seconds
#
# Revision: 0
# Processed by: cddbd v1.5.2PL0 Copyright (c) Steve Scherf et al.
# Submitted via: ExactAudioCopy v0.95a5
#
DISCID=a107be0a
DTITLE=Kenny Acosta and the House Reckers  - Spanish Town Mardi Gras
DYEAR=2008
DGENRE=Blues
TTITLE0=Black Drawers
TTITLE1=Spanish Town Mardi Gras
TTITLE2=Rajun Cajun
TTITLE3=Call the Plumber
TTITLE4=Ain't Heard Jack
TTITLE5=Mojo
TTITLE6=Linda Lou
TTITLE7=Cocaine Blues
TTITLE8=Time Bomb
TTITLE9=Woke Up This Morning
EXTD=
EXTT0=
EXTT1=
EXTT2=
EXTT3=
EXTT4=
EXTT5=
EXTT6=
EXTT7=
EXTT8=
EXTT9=
PLAYORDER=
